<svg width="24" height="29" viewBox="0 0 24 29" fill="none" xmlns="http://www.w3.org/2000/svg">
<g clip-path="url(#clip0_3_702)">
<path d="M8.06283 0H21.2617C23.3956 0.734667 23.9986 1.58148 23.9986 3.84864C23.9986 9.8815 23.9986 15.9148 23.9986 21.9485C23.9986 24.07 22.6657 25.3821 20.5229 25.3872C19.9237 25.3872 19.3246 25.3872 18.6944 25.3872C18.6867 27.3206 17.7537 28.4935 15.9576 28.9961H2.75739C0.535578 28.4071 -0.0156696 26.894 -0.000141475 25.163C0.0542069 19.0949 0.0205592 13.0255 0.0205592 6.95742C0.0205592 4.9648 1.36762 3.62306 3.38498 3.60631C4.02552 3.60631 4.66476 3.60631 5.29624 3.60631C5.53434 1.41778 6.06747 0.734667 8.06283 0ZM16.6033 16.3032C16.6033 13.2339 16.6033 10.165 16.6033 7.09663C16.6033 6.06552 16.2047 5.66853 15.1527 5.66853C11.2707 5.66853 7.39211 5.66853 3.51698 5.66853C2.46365 5.66853 2.06251 6.05521 2.06251 7.09534C2.05733 13.2339 2.05733 19.372 2.06251 25.5097C2.06251 26.5575 2.45977 26.9365 3.5131 26.9378C7.37011 26.9378 11.2271 26.9378 15.0841 26.9378C16.228 26.9378 16.6033 26.5704 16.6033 25.4465C16.6033 22.4022 16.6033 19.3544 16.6033 16.3032ZM18.6737 23.3328H20.4116C21.5878 23.3328 21.9644 22.9693 21.9644 21.8003C21.9644 15.7451 21.9644 9.69072 21.9644 3.63724C21.9644 3.53026 21.9644 3.422 21.9644 3.31502C21.9113 2.46564 21.5063 2.06609 20.6561 2.0648C16.668 2.05965 12.6803 2.05965 8.69302 2.0648C7.75356 2.0648 7.32396 2.63062 7.51677 3.61147C10.0271 3.61147 12.5431 3.61147 15.0647 3.61147C17.3681 3.61147 18.6802 4.91455 18.6879 7.19846C18.6879 10.7403 18.6879 14.2826 18.6879 17.8253L18.6737 23.3328Z" fill="#F9F9F9"/>
</g>
<defs>
<clipPath id="clip0_3_702">
<rect width="24" height="29" fill="white"/>
</clipPath>
</defs>
</svg>