<svg xmlns="http://www.w3.org/2000/svg" xmlns:xlink="http://www.w3.org/1999/xlink" viewBox="0 0 30 30"><defs><style>.cls-1{fill:none;}.cls-2{clip-path:url(#clip-path);}.cls-3{fill:#f9f9f9;}</style><clipPath id="clip-path" transform="translate(0 0)"><rect class="cls-1" width="30" height="30"/></clipPath></defs><g id="Layer_2" data-name="Layer 2"><g id="Layer_1-2" data-name="Layer 1"><g class="cls-2"><path class="cls-3" d="M0,15A14.61,14.61,0,0,1,4.46,4.33,14.54,14.54,0,0,1,15.87,0a14.45,14.45,0,0,1,10,4.62A14.62,14.62,0,0,1,30,15.85a14.36,14.36,0,0,1-4,9.42A14.62,14.62,0,0,1,14.11,30a14.56,14.56,0,0,1-9.33-4A14.84,14.84,0,0,1,0,15ZM15,6.22a6.28,6.28,0,0,1-.74,0,4.67,4.67,0,0,0-1.62.37,6.37,6.37,0,0,0-1.58.91,5.34,5.34,0,0,0-1.36,1.6,4.68,4.68,0,0,0-.51,1.6,1.5,1.5,0,0,0,.88,1.61,1.42,1.42,0,0,0,2-.84c.2-.46.35-.95.57-1.4a2.46,2.46,0,0,1,1.11-1.21,3,3,0,0,1,1.31-.26,2.67,2.67,0,0,1,1.34.29,2.2,2.2,0,0,1,.85.75,2,2,0,0,1-.17,2.49c-.34.38-.74.72-1.11,1.07l-1.58,1.53a3.84,3.84,0,0,0-1,1.74c-.07.27-.05.56-.11.84a1.75,1.75,0,0,0,.11,1.08,1.25,1.25,0,0,0,1.34.79,1.22,1.22,0,0,0,1.26-1c.07-.31.17-.62.24-.93A2.36,2.36,0,0,1,17,16.15c.31-.33.65-.64,1-.95s.42-.4.65-.59a8.42,8.42,0,0,0,1.49-1.55,3.7,3.7,0,0,0,.65-2.89,4.28,4.28,0,0,0-1.27-2.38,5.35,5.35,0,0,0-1.38-.94A6.76,6.76,0,0,0,15,6.22ZM13.12,22.07a1.73,1.73,0,0,0,3.46,0,1.72,1.72,0,0,0-1.65-1.71,1.74,1.74,0,0,0-1.81,1.72Z" transform="translate(0 0)"/></g></g></g></svg>