<svg xmlns="http://www.w3.org/2000/svg" xmlns:xlink="http://www.w3.org/1999/xlink" viewBox="0 0 71 65"><defs><style>.cls-1{fill:none;}.cls-2{clip-path:url(#clip-path);}.cls-3{fill:#3cb054;}</style><clipPath id="clip-path" transform="translate(0 0)"><rect class="cls-1" width="71" height="65"/></clipPath></defs><g id="Layer_2" data-name="Layer 2"><g id="Layer_1-2" data-name="Layer 1"><g class="cls-2"><path class="cls-3" d="M35.51,65H14.27A13.75,13.75,0,0,1,3.54,60.39a13.64,13.64,0,0,1-1.69-16q8.43-14.61,16.9-29.19L23.53,6.9a13.83,13.83,0,0,1,23.92,0q9.25,15.93,18.47,31.89c1.07,1.85,2.16,3.7,3.22,5.56A13.74,13.74,0,0,1,59.8,64.72a15.08,15.08,0,0,1-3,.26C49.7,65,42.61,65,35.51,65Zm0-2.55H57a12.18,12.18,0,0,0,1.91-.13A11.21,11.21,0,0,0,67,45.8c-.63-1.17-1.32-2.32-2-3.46q-9.9-17.1-19.81-34.18A10.77,10.77,0,0,0,38.66,3a11.11,11.11,0,0,0-12.5,4.55c-1,1.56-1.9,3.22-2.84,4.84L4.15,45.49a10.88,10.88,0,0,0-1.41,7.57,11.24,11.24,0,0,0,11.39,9.39q10.66,0,21.35,0Z" transform="translate(0 0)"/><path class="cls-3" d="M40.54,21.74c-.16,1.35-.35,2.92-.54,4.49l-1,8.14c-.35,2.87-.68,5.74-1,8.61A2.5,2.5,0,0,1,33,43c-.48-3.85-.93-7.69-1.39-11.54-.37-3-.72-6-1.14-9.06a5,5,0,1,1,10-.61Z" transform="translate(0 0)"/><path class="cls-3" d="M35.51,53.92a3.29,3.29,0,0,1-2.31-1,3.21,3.21,0,0,1,0-4.59,3.28,3.28,0,0,1,2.29-1,3.42,3.42,0,0,1,1.26.26,3.24,3.24,0,0,1,1.06.71,3.2,3.2,0,0,1,1,2.31,3.26,3.26,0,0,1-3.26,3.23Z" transform="translate(0 0)"/></g></g></g></svg>